<svg width="32" height="33" viewBox="0 0 32 33" fill="none" xmlns="http://www.w3.org/2000/svg">
<g clip-path="url(#clip0_1_409)">
<path d="M18.576 5.83333C19.6606 5.83439 20.7005 6.26571 21.4674 7.03263C22.2343 7.79955 22.6656 8.83941 22.6667 9.924C22.6667 10.2776 22.8072 10.6168 23.0572 10.8668C23.3073 11.1169 23.6464 11.2573 24 11.2573C24.3537 11.2573 24.6928 11.1169 24.9428 10.8668C25.1929 10.6168 25.3334 10.2776 25.3334 9.924V9.83333C25.3334 9.808 25.3334 9.78533 25.3334 9.76C25.2889 7.99697 24.5575 6.32104 23.2953 5.08941C22.033 3.85777 20.3396 3.16784 18.576 3.16667H17.3334V1.83333C17.3334 1.47971 17.1929 1.14057 16.9428 0.890524C16.6928 0.640476 16.3536 0.5 16 0.5C15.6464 0.5 15.3073 0.640476 15.0572 0.890524C14.8072 1.14057 14.6667 1.47971 14.6667 1.83333V3.16667H13.424C11.8204 3.16838 10.2697 3.74031 9.04908 4.78024C7.82842 5.82016 7.01737 7.2603 6.76089 8.84323C6.50442 10.4262 6.81923 12.0487 7.64908 13.4209C8.47892 14.793 9.7697 15.8254 11.2907 16.3333L14.6667 17.46V27.1667H13.424C12.3394 27.1656 11.2996 26.7343 10.5327 25.9674C9.76573 25.2004 9.33441 24.1606 9.33335 23.076C9.33335 22.7224 9.19288 22.3832 8.94283 22.1332C8.69278 21.8831 8.35364 21.7427 8.00002 21.7427C7.6464 21.7427 7.30726 21.8831 7.05721 22.1332C6.80716 22.3832 6.66669 22.7224 6.66669 23.076V23.1667C6.66669 23.192 6.66669 23.2147 6.66669 23.24C6.71118 25.003 7.4425 26.679 8.70477 27.9106C9.96704 29.1422 11.6604 29.8321 13.424 29.8333H14.6667V31.1667C14.6667 31.5203 14.8072 31.8594 15.0572 32.1095C15.3073 32.3595 15.6464 32.5 16 32.5C16.3536 32.5 16.6928 32.3595 16.9428 32.1095C17.1929 31.8594 17.3334 31.5203 17.3334 31.1667V29.8333H18.576C20.1796 29.8316 21.7303 29.2597 22.951 28.2198C24.1716 27.1798 24.9827 25.7397 25.2392 24.1568C25.4956 22.5738 25.1808 20.9513 24.351 19.5791C23.5211 18.207 22.2304 17.1746 20.7094 16.6667L17.3334 15.54V5.83333H18.576ZM19.8694 19.1947C20.7913 19.5015 21.5738 20.1265 22.077 20.9577C22.5801 21.7888 22.771 22.772 22.6154 23.7311C22.4598 24.6902 21.9679 25.5625 21.2278 26.192C20.4877 26.8215 19.5476 27.167 18.576 27.1667H17.3334V18.3493L19.8694 19.1947ZM14.6667 14.6507L12.1334 13.8053C11.2117 13.4986 10.4292 12.8738 9.92607 12.0429C9.4229 11.212 9.23184 10.2291 9.38709 9.27023C9.54234 8.31133 10.0338 7.43896 10.7734 6.80926C11.513 6.17955 12.4526 5.83361 13.424 5.83333H14.6667V14.6507Z" fill="#F05830"/>
</g>
<defs>
<clipPath id="clip0_1_409">
<rect width="32" height="32" fill="white" transform="translate(0 0.5)"/>
</clipPath>
</defs>
</svg>
